<svg id="svg" version="1.1" xmlns="http://www.w3.org/2000/svg" xmlns:xlink="http://www.w3.org/1999/xlink" width="400" height="400" viewBox="0, 0, 400,400"><g id="svgg"><path id="path0" d="M154.212 224.838 C 149.866 226.032,147.265 233.642,145.213 251.167 C 144.493 257.318,139.775 267.199,137.901 266.480 C 137.010 266.138,136.914 265.373,136.704 256.943 C 136.472 247.589,136.482 247.621,133.421 246.452 C 131.699 245.794,131.656 245.829,130.773 248.583 C 130.092 250.707,130.118 250.705,128.517 248.789 L 127.226 247.245 124.823 247.427 C 118.356 247.916,114.224 252.994,114.186 260.500 C 114.133 270.624,123.406 272.949,128.418 264.068 C 129.543 262.074,129.641 262.074,130.018 264.068 C 131.658 272.741,138.786 273.136,143.022 264.789 C 143.617 263.618,144.156 262.712,144.220 262.776 C 144.356 262.912,143.715 269.643,143.511 270.225 C 142.615 272.781,147.706 275.958,150.134 274.358 C 151.752 273.291,152.667 269.240,152.667 263.143 C 152.667 261.414,152.789 260.000,152.938 260.000 C 153.418 260.000,154.886 261.771,156.454 264.239 C 160.822 271.118,167.967 269.912,174.118 261.259 L 175.237 259.685 175.442 262.092 C 176.289 272.044,185.369 275.883,191.511 268.887 C 193.547 266.567,200.623 252.340,200.261 251.293 C 200.042 250.659,196.514 254.599,195.748 256.333 C 192.748 263.121,187.745 269.159,185.667 268.500 C 183.371 267.771,183.194 264.859,185.285 262.214 C 187.722 259.132,189.333 255.302,189.333 252.593 C 189.333 245.646,180.326 245.833,177.028 252.848 C 176.655 253.642,176.143 254.413,175.890 254.562 C 175.637 254.711,175.234 255.208,174.995 255.667 C 173.825 257.901,170.592 261.317,168.017 263.040 C 165.247 264.892,163.022 264.066,160.024 260.075 C 158.113 257.531,158.087 257.457,159.004 257.165 C 166.224 254.874,172.007 245.748,168.773 241.752 C 165.861 238.154,159.584 240.663,154.388 247.500 L 153.628 248.500 153.845 245.340 C 154.067 242.110,154.383 241.137,155.759 239.457 C 161.140 232.883,161.290 223.478,156.000 224.365 C 155.908 224.380,155.104 224.593,154.212 224.838 M260.251 227.137 C 252.533 231.260,245.333 242.903,245.333 251.263 C 245.333 252.989,245.297 253.067,244.583 252.854 C 244.171 252.731,242.896 252.458,241.750 252.248 C 240.604 252.037,239.667 251.721,239.667 251.546 C 239.667 251.023,241.305 242.399,242.030 239.106 C 243.033 234.552,242.561 233.235,238.940 230.481 C 236.798 228.852,233.969 228.522,232.779 229.762 C 231.890 230.688,230.254 238.710,229.334 246.654 C 228.892 250.473,229.176 250.194,226.252 249.693 C 217.412 248.177,216.516 247.730,218.116 245.635 C 220.221 242.878,222.245 239.516,223.309 237.010 C 223.890 235.641,224.734 234.038,225.183 233.449 C 227.068 230.977,224.668 227.050,221.246 227.007 C 219.801 226.989,211.333 244.694,211.333 247.732 C 211.333 248.811,213.197 251.000,214.117 251.000 C 214.521 251.000,215.148 251.206,215.509 251.458 C 217.647 252.946,224.682 255.000,227.641 255.000 C 229.619 255.000,229.719 255.385,229.621 262.598 C 229.526 269.621,229.747 270.769,231.533 272.555 C 232.713 273.735,233.804 273.993,234.121 273.167 C 234.226 272.892,234.537 272.667,234.811 272.667 C 235.523 272.667,236.000 271.597,236.000 270.001 C 236.000 268.534,237.477 259.005,238.028 256.920 C 238.425 255.416,239.085 255.167,242.667 255.167 L 245.167 255.167 245.390 257.863 C 246.221 267.871,252.210 274.222,259.980 273.335 C 264.382 272.833,265.436 272.268,268.376 268.837 C 275.645 260.352,276.085 242.621,269.355 229.333 C 268.407 227.461,262.370 226.005,260.251 227.137 M284.304 228.417 C 282.181 231.325,276.709 243.639,275.860 247.415 C 275.605 248.551,277.251 250.510,279.014 251.169 C 279.648 251.406,281.292 252.076,282.667 252.657 C 285.806 253.985,288.511 254.690,291.500 254.958 L 293.833 255.167 294.065 256.833 C 294.192 257.750,294.212 260.675,294.109 263.333 C 293.886 269.089,294.193 270.618,295.929 272.417 C 298.110 274.676,300.112 273.422,300.461 269.579 C 300.873 265.033,302.545 256.312,303.113 255.744 C 303.529 255.329,304.437 255.185,307.041 255.126 C 310.519 255.046,311.983 254.517,311.120 253.653 C 310.760 253.293,305.953 252.011,304.936 252.004 C 303.914 251.997,303.960 251.586,306.167 241.000 C 307.512 234.548,307.190 233.326,303.396 230.487 L 301.292 228.913 299.229 229.206 L 297.167 229.500 296.548 231.333 C 295.796 233.560,294.075 243.459,293.781 247.250 C 293.539 250.384,293.810 250.219,290.000 249.544 C 285.451 248.739,281.919 247.844,281.771 247.458 C 281.691 247.249,282.755 245.432,284.137 243.420 C 285.518 241.408,287.163 238.542,287.792 237.051 C 288.421 235.559,289.325 233.876,289.801 233.311 C 291.398 231.413,290.263 228.680,287.376 227.471 C 285.718 226.776,285.438 226.862,284.304 228.417 M98.732 227.689 C 90.818 229.247,86.630 240.275,88.062 255.787 C 89.340 269.642,93.828 276.531,102.197 277.488 C 106.853 278.020,111.350 272.811,112.671 265.356 C 113.696 259.577,111.522 259.231,109.684 264.881 C 105.421 277.978,101.278 275.394,98.121 257.667 C 96.148 246.589,99.569 230.667,103.923 230.667 C 106.758 230.667,108.308 233.610,106.060 234.727 C 101.322 237.082,100.954 243.667,105.562 243.667 C 108.029 243.667,110.988 240.525,110.997 237.895 C 111.002 236.351,111.557 235.667,112.804 235.667 C 115.334 235.667,115.110 234.043,112.541 233.754 C 111.145 233.596,110.993 233.486,110.635 232.375 C 110.061 230.592,109.136 229.724,105.883 227.917 C 104.739 227.282,101.348 227.174,98.732 227.689 M157.047 231.253 C 156.226 234.324,154.649 237.200,154.673 235.583 C 154.683 234.867,155.611 229.867,155.863 229.167 C 156.746 226.716,157.775 228.531,157.047 231.253 M268.516 235.583 C 274.073 248.821,270.985 265.970,262.527 268.841 C 260.277 269.605,256.000 267.454,256.000 265.557 C 256.000 265.298,255.701 264.151,255.336 263.008 C 254.642 260.837,254.788 254.634,255.637 250.156 C 257.386 240.936,266.455 230.674,268.516 235.583 M107.320 237.713 C 106.784 239.581,105.333 240.581,105.333 239.082 C 105.333 238.534,106.910 236.667,107.372 236.667 C 107.509 236.667,107.485 237.137,107.320 237.713 M161.936 247.408 C 162.192 250.497,157.315 255.667,154.144 255.667 C 153.070 255.667,153.111 255.529,155.262 251.898 C 158.507 246.418,161.677 244.286,161.936 247.408 M186.039 250.214 C 187.223 251.640,186.145 256.436,184.064 259.003 C 183.102 260.189,183.054 259.958,183.321 255.439 C 183.621 250.358,184.599 248.479,186.039 250.214 M127.571 251.083 C 130.081 253.823,130.123 256.599,127.718 260.947 C 125.054 265.764,122.233 267.437,121.150 264.844 C 118.931 259.535,124.460 247.688,127.571 251.083 " stroke="none" fill="#d9aa53" fill-rule="evenodd"></path><path id="path1" d="M161.333 88.020 C 95.778 93.769,49.418 153.137,59.703 218.167 C 61.971 232.507,67.627 247.575,75.223 259.520 C 75.622 260.147,75.074 261.066,68.867 270.186 L 62.074 280.167 77.077 280.253 L 92.079 280.340 95.456 283.461 C 136.820 321.687,204.090 321.683,245.547 283.451 L 248.928 280.333 280.464 280.333 L 312.000 280.333 312.000 282.177 C 312.000 286.670,315.601 289.761,319.586 288.688 C 322.437 287.921,324.000 285.677,324.000 282.353 L 324.000 280.347 331.005 280.257 L 338.010 280.167 331.005 269.927 L 324.000 259.687 324.000 250.500 L 324.000 241.313 331.005 231.073 L 338.010 220.833 331.002 220.743 L 323.995 220.653 324.081 201.122 L 324.167 181.591 326.039 181.012 C 342.197 176.013,346.833 150.453,335.819 127.094 C 323.334 100.612,302.564 108.449,295.427 142.333 C 291.485 161.052,297.358 176.518,310.113 181.010 L 311.833 181.616 311.919 201.141 L 312.005 220.667 296.503 220.667 C 287.976 220.667,281.001 220.554,281.002 220.417 C 281.002 220.279,281.314 218.142,281.694 215.667 C 292.418 145.800,232.086 81.815,161.333 88.020 M164.702 101.280 C 165.857 106.972,174.440 106.905,176.326 101.189 L 176.723 99.987 178.945 100.190 C 180.167 100.302,182.667 100.610,184.500 100.874 C 186.333 101.139,188.433 101.440,189.167 101.545 C 190.499 101.735,190.500 101.736,190.527 103.284 C 190.639 109.842,199.361 111.188,202.183 105.084 C 202.262 104.912,210.275 107.994,212.755 109.151 C 215.056 110.224,215.306 110.428,215.005 110.991 C 212.160 116.307,220.240 121.604,224.761 117.386 C 225.868 116.353,225.565 116.212,230.833 120.202 C 237.063 124.919,236.934 124.784,236.262 125.925 C 233.177 131.165,238.872 137.120,244.314 134.343 L 245.601 133.687 248.071 136.760 C 249.430 138.450,251.329 140.931,252.290 142.272 L 254.039 144.710 252.887 145.984 C 249.179 150.089,252.368 155.976,258.103 155.610 L 260.213 155.476 261.439 158.155 C 262.797 161.123,265.333 167.544,265.333 168.015 C 265.333 168.181,264.883 168.549,264.332 168.834 C 259.166 171.506,261.439 180.000,267.320 180.000 C 268.061 180.000,268.668 180.037,268.669 180.083 C 268.670 180.129,268.961 181.848,269.314 183.903 C 269.668 185.958,270.061 189.041,270.186 190.755 L 270.415 193.870 269.078 194.271 C 263.648 195.897,263.648 204.103,269.078 205.729 L 270.415 206.130 270.186 209.245 C 270.061 210.959,269.668 214.042,269.314 216.097 C 268.961 218.152,268.670 219.856,268.669 219.884 C 268.654 220.229,262.137 220.431,247.424 220.543 L 229.681 220.678 229.584 185.422 C 229.509 158.176,229.392 149.888,229.067 148.939 C 228.420 147.045,226.612 144.629,224.805 143.243 C 221.669 140.837,225.351 140.982,169.817 141.079 L 119.833 141.167 118.167 141.986 C 115.923 143.089,113.487 145.594,112.396 147.921 L 111.500 149.833 111.412 185.256 L 111.324 220.678 93.579 220.543 C 78.863 220.431,72.346 220.229,72.331 219.884 C 72.330 219.856,72.039 218.152,71.686 216.097 C 71.332 214.042,70.938 210.945,70.811 209.216 L 70.581 206.072 71.648 205.837 C 77.319 204.592,77.319 195.408,71.648 194.163 L 70.581 193.928 70.811 190.784 C 70.938 189.055,71.332 185.958,71.686 183.903 C 72.039 181.848,72.330 180.129,72.331 180.083 C 72.332 180.037,72.971 179.998,73.750 179.995 C 79.894 179.971,81.677 171.523,76.181 168.475 C 75.419 168.052,76.092 165.875,79.059 159.161 L 80.682 155.488 83.091 155.606 C 88.654 155.878,91.741 150.000,88.132 146.006 L 86.969 144.718 89.051 141.776 C 90.197 140.157,92.097 137.677,93.275 136.264 L 95.416 133.695 96.695 134.348 C 102.126 137.119,107.825 131.154,104.738 125.929 L 104.168 124.964 105.628 123.732 C 106.431 123.054,108.905 121.128,111.127 119.450 L 115.167 116.400 116.167 117.327 C 120.782 121.603,128.209 116.976,126.010 111.194 C 125.679 110.322,127.572 109.156,132.000 107.502 C 132.642 107.263,134.383 106.613,135.870 106.059 L 138.574 105.051 139.570 106.463 C 142.838 111.100,150.391 108.970,150.476 103.388 L 150.500 101.764 154.169 101.188 C 163.156 99.778,164.400 99.789,164.702 101.280 M320.536 125.500 C 328.923 134.397,332.486 157.398,326.807 165.980 C 323.905 170.365,315.392 171.451,311.088 167.986 C 303.783 162.103,305.512 139.372,314.196 127.122 C 317.261 122.798,317.847 122.648,320.536 125.500 M217.667 185.333 L 217.667 217.667 170.500 217.667 L 123.333 217.667 123.333 185.333 L 123.333 153.000 170.500 153.000 L 217.667 153.000 217.667 185.333 M167.422 159.847 C 153.580 163.575,139.016 187.573,142.464 200.972 C 145.177 211.514,157.963 214.918,174.500 209.502 C 190.470 204.271,199.033 194.185,196.387 183.721 L 195.689 180.960 196.894 179.902 C 201.497 175.860,197.169 167.490,191.583 169.632 C 190.510 170.044,190.526 170.085,191.167 168.551 C 193.571 162.797,186.345 157.582,181.756 161.761 L 181.011 162.439 178.920 161.377 C 174.963 159.369,171.104 158.855,167.422 159.847 M174.218 172.702 C 175.015 173.250,175.666 173.729,175.665 173.766 C 175.665 173.803,175.290 174.571,174.832 175.473 C 172.364 180.338,177.068 185.848,182.028 183.900 L 183.342 183.383 183.891 184.442 C 185.853 188.227,184.550 190.606,178.404 194.461 C 170.674 199.310,156.546 201.669,154.444 198.461 C 151.760 194.365,160.044 178.283,167.417 173.277 C 170.690 171.054,171.699 170.969,174.218 172.702 M158.549 224.822 C 161.437 226.845,160.588 232.831,156.575 238.747 C 154.511 241.788,154.021 243.121,154.008 245.726 L 154.000 247.286 156.824 244.462 C 161.203 240.083,166.131 238.555,168.438 240.862 C 172.540 244.964,168.966 252.313,160.889 256.381 C 158.586 257.541,158.570 257.576,159.652 259.118 C 163.268 264.268,165.310 264.877,169.011 261.912 C 171.174 260.179,173.976 257.097,174.759 255.591 C 174.983 255.159,175.511 254.362,175.931 253.819 C 176.352 253.277,177.177 252.101,177.765 251.206 C 180.193 247.508,184.692 246.105,187.618 248.133 C 190.807 250.343,189.908 256.837,185.675 262.156 C 183.844 264.458,183.626 265.430,184.580 267.046 C 186.449 270.210,190.711 266.063,195.420 256.500 C 196.329 254.654,197.262 253.351,198.450 252.265 C 201.056 249.884,201.321 250.255,199.638 253.924 C 199.072 255.157,197.994 257.592,197.242 259.333 C 192.845 269.518,190.223 272.167,184.538 272.167 C 178.670 272.167,175.758 269.227,175.343 262.888 C 175.180 260.394,175.128 260.233,174.716 260.957 C 173.468 263.152,169.482 267.025,167.447 268.021 C 163.269 270.064,159.169 268.819,156.387 264.661 C 155.591 263.473,154.541 261.975,154.054 261.333 L 153.168 260.167 152.942 261.667 C 152.818 262.492,152.705 264.582,152.691 266.311 C 152.632 273.925,150.469 276.376,145.747 274.177 C 143.189 272.986,143.000 272.093,143.846 265.167 L 144.049 263.500 143.147 265.253 C 138.970 273.372,131.486 272.774,129.744 264.182 L 129.476 262.864 128.584 264.388 C 121.728 276.086,109.261 266.539,115.091 254.056 C 117.981 247.869,126.641 244.814,129.167 249.090 L 129.780 250.128 130.262 248.981 C 131.763 245.412,131.595 245.637,132.581 245.874 C 136.649 246.852,137.000 247.711,137.002 256.717 C 137.004 266.439,137.556 268.082,139.700 264.750 C 141.240 262.356,144.371 255.726,144.519 254.543 C 144.591 253.970,144.818 252.150,145.022 250.500 C 147.105 233.691,149.556 226.177,153.413 224.778 C 154.962 224.216,157.718 224.240,158.549 224.822 M266.333 227.010 C 267.678 227.364,270.000 229.161,270.000 229.847 C 270.000 230.104,270.290 230.829,270.644 231.461 C 270.999 232.092,271.475 233.259,271.703 234.054 C 271.930 234.849,272.219 235.650,272.345 235.833 C 274.009 238.268,274.873 251.775,273.710 257.167 C 270.769 270.788,263.444 276.377,253.662 272.462 C 248.706 270.479,245.812 265.529,245.133 257.877 L 244.901 255.255 242.105 255.402 C 240.171 255.503,239.148 255.709,238.788 256.069 C 238.238 256.619,236.893 263.791,236.339 269.129 C 235.391 278.256,228.735 273.891,229.279 264.500 C 229.792 255.651,229.762 255.564,226.077 255.099 C 223.021 254.713,219.462 253.660,216.245 252.188 C 215.217 251.718,214.159 251.333,213.893 251.333 C 213.206 251.333,211.000 248.793,211.000 248.000 C 211.000 247.187,212.140 243.785,213.209 241.407 C 213.644 240.439,214.000 239.581,214.000 239.500 C 214.000 239.419,214.357 238.561,214.793 237.593 C 215.229 236.625,215.912 235.083,216.311 234.167 C 217.427 231.598,220.005 227.354,220.660 227.003 C 223.314 225.583,228.051 231.175,225.776 233.043 C 225.470 233.294,224.711 234.625,224.091 236.000 C 222.265 240.049,219.239 245.124,217.767 246.610 C 216.934 247.450,217.061 247.502,223.172 248.830 C 224.275 249.070,226.037 249.373,227.089 249.505 L 229.000 249.743 229.000 248.093 C 229.000 247.185,229.232 244.955,229.517 243.138 C 229.801 241.320,230.179 238.858,230.358 237.667 C 231.426 230.538,232.138 229.134,234.833 228.846 L 237.024 228.611 239.343 230.485 C 242.615 233.128,243.451 235.402,242.374 238.732 C 242.179 239.338,241.799 241.108,241.531 242.667 C 241.263 244.225,240.809 246.625,240.522 248.000 C 239.756 251.670,239.719 251.564,241.917 251.999 C 242.971 252.208,244.076 252.448,244.373 252.531 C 244.821 252.658,244.950 252.273,245.138 250.259 C 245.463 246.770,247.873 239.545,249.528 237.097 C 252.115 233.272,256.756 228.811,260.124 226.912 C 261.217 226.295,263.772 226.336,266.333 227.010 M288.542 227.786 C 290.694 229.197,291.452 231.949,290.091 233.408 C 289.701 233.825,288.700 235.642,287.864 237.445 C 287.029 239.248,285.368 242.135,284.173 243.861 C 282.978 245.587,282.000 247.125,282.000 247.277 C 282.000 247.755,292.791 249.987,293.187 249.591 C 293.261 249.517,293.467 247.891,293.645 245.978 C 294.234 239.619,296.073 230.699,297.050 229.459 C 297.212 229.253,298.245 228.983,299.346 228.858 L 301.347 228.632 303.594 230.302 C 306.887 232.751,307.797 234.798,307.018 238.000 C 306.818 238.825,306.360 241.150,306.002 243.167 C 305.644 245.183,305.122 247.883,304.842 249.167 C 304.562 250.450,304.333 251.531,304.333 251.568 C 304.333 251.606,304.896 251.732,305.583 251.848 C 312.241 252.976,313.901 255.327,308.046 255.337 C 305.005 255.342,303.362 255.658,303.016 256.303 C 302.636 257.013,301.108 266.092,300.807 269.426 C 300.417 273.744,297.885 275.221,295.593 272.467 C 293.834 270.354,293.546 268.966,293.788 263.767 C 293.901 261.347,293.901 258.479,293.787 257.394 L 293.581 255.421 291.302 255.209 C 288.468 254.946,286.260 254.369,282.833 252.996 C 281.367 252.409,279.675 251.745,279.074 251.521 C 277.859 251.067,275.772 249.190,275.488 248.295 C 275.000 246.757,282.475 229.763,284.682 227.394 C 285.517 226.497,286.770 226.625,288.542 227.786 M105.759 227.491 C 106.405 227.760,107.136 228.179,107.383 228.420 C 107.631 228.661,108.380 229.193,109.048 229.601 C 109.956 230.157,110.373 230.716,110.698 231.817 C 111.146 233.335,111.607 233.653,113.376 233.662 C 115.674 233.674,115.072 235.868,112.717 236.065 C 111.539 236.164,111.498 236.213,111.274 237.793 C 110.339 244.377,102.000 246.498,102.000 240.151 C 102.000 237.713,104.291 234.691,106.574 234.118 C 107.098 233.987,107.309 233.750,107.187 233.432 C 107.084 233.164,107.000 232.821,107.000 232.668 C 107.000 232.515,106.347 232.025,105.549 231.579 L 104.098 230.768 102.799 231.649 C 100.622 233.125,99.020 237.634,98.017 245.107 C 97.251 250.808,97.832 256.247,100.282 266.333 C 100.765 268.324,102.590 271.558,103.735 272.454 L 104.827 273.309 105.914 272.255 C 106.932 271.268,108.680 267.346,109.999 263.088 C 111.457 258.384,114.001 260.853,112.842 265.847 C 110.203 277.226,102.490 281.113,94.927 274.876 C 86.254 267.724,84.868 239.521,92.755 230.663 C 95.345 227.754,102.318 226.053,105.759 227.491 M156.460 228.694 C 155.840 229.480,154.702 235.816,155.306 235.124 C 155.919 234.420,157.030 230.546,156.936 229.439 C 156.855 228.473,156.756 228.319,156.460 228.694 M264.105 235.927 C 260.763 238.898,257.750 243.560,256.518 247.667 C 255.507 251.038,254.717 260.350,255.303 262.000 C 255.465 262.458,255.845 263.658,256.147 264.667 C 257.067 267.741,259.929 269.467,262.565 268.536 C 268.719 266.363,272.190 256.550,270.654 245.667 C 269.137 234.924,267.676 232.752,264.105 235.927 M106.241 237.917 C 105.611 238.614,105.483 239.333,105.988 239.333 C 106.392 239.333,107.082 238.079,106.930 237.623 C 106.867 237.435,106.558 237.568,106.241 237.917 M159.263 246.984 C 157.827 248.113,153.374 255.152,153.816 255.594 C 154.523 256.300,159.220 252.921,160.669 250.663 C 162.630 247.606,161.669 245.091,159.263 246.984 M184.517 250.428 C 183.954 251.287,183.344 254.991,183.352 257.500 L 183.357 259.167 184.181 258.167 C 186.011 255.946,186.769 252.477,185.825 250.650 C 185.213 249.468,185.152 249.457,184.517 250.428 M124.916 251.417 C 122.599 253.630,120.297 260.087,120.888 262.717 C 121.460 265.268,121.701 265.667,122.667 265.667 C 125.904 265.667,130.294 257.046,128.835 253.555 C 127.687 250.809,126.328 250.067,124.916 251.417 M230.000 280.452 C 230.000 280.667,226.067 283.333,225.749 283.333 C 225.577 283.333,225.151 283.018,224.802 282.633 C 220.758 278.163,212.184 283.738,215.003 289.005 C 215.301 289.563,215.017 289.783,212.440 290.991 C 209.606 292.318,202.306 295.128,202.199 294.932 C 202.169 294.878,201.926 294.401,201.659 293.873 C 199.070 288.749,190.626 290.905,190.527 296.716 C 190.500 298.264,190.499 298.265,189.167 298.455 C 188.433 298.560,186.333 298.861,184.500 299.126 C 182.667 299.390,180.167 299.698,178.945 299.810 L 176.723 300.013 176.326 298.811 C 175.175 295.325,171.417 293.452,168.239 294.782 C 166.799 295.385,164.667 297.792,164.667 298.815 C 164.667 300.167,162.750 300.162,154.000 298.782 L 150.500 298.230 150.476 296.609 C 150.388 290.836,141.590 288.780,139.283 293.993 C 138.737 295.227,139.224 295.276,134.667 293.530 C 127.361 290.731,125.636 289.790,126.010 288.806 C 128.221 282.991,120.313 278.211,116.043 282.783 L 115.253 283.628 113.377 282.266 C 112.344 281.517,111.357 280.776,111.183 280.619 C 111.008 280.460,137.365 280.333,170.433 280.333 C 203.195 280.333,230.000 280.387,230.000 280.452 " stroke="none" fill="#444434" fill-rule="evenodd"></path><path id="path2" d="M97.744 245.667 C 97.744 246.308,97.813 246.571,97.896 246.250 C 97.980 245.929,97.980 245.404,97.896 245.083 C 97.813 244.762,97.744 245.025,97.744 245.667 M183.411 254.000 C 183.411 254.642,183.479 254.904,183.563 254.583 C 183.647 254.262,183.647 253.737,183.563 253.417 C 183.479 253.096,183.411 253.358,183.411 254.000 M152.744 261.333 C 152.744 261.975,152.813 262.237,152.896 261.917 C 152.980 261.596,152.980 261.071,152.896 260.750 C 152.813 260.429,152.744 260.692,152.744 261.333 M126.151 267.083 L 124.833 268.500 126.250 267.182 C 127.567 265.957,127.820 265.667,127.568 265.667 C 127.513 265.667,126.876 266.304,126.151 267.083 M188.812 266.750 L 187.833 267.833 188.917 266.854 C 189.926 265.942,190.153 265.667,189.896 265.667 C 189.838 265.667,189.351 266.154,188.812 266.750 M298.683 273.147 C 298.464 273.411,297.958 273.690,297.559 273.768 C 296.854 273.905,296.853 273.910,297.532 273.955 C 297.916 273.980,298.502 273.700,298.833 273.333 C 299.165 272.967,299.357 272.667,299.259 272.667 C 299.162 272.667,298.902 272.883,298.683 273.147 " stroke="none" fill="#776440" fill-rule="evenodd"></path><path id="path3" d="M263.750 226.896 C 264.071 226.980,264.596 226.980,264.917 226.896 C 265.237 226.813,264.975 226.744,264.333 226.744 C 263.692 226.744,263.429 226.813,263.750 226.896 M254.000 231.833 C 253.190 232.658,252.603 233.333,252.695 233.333 C 252.786 233.333,253.524 232.658,254.333 231.833 C 255.143 231.008,255.730 230.333,255.639 230.333 C 255.547 230.333,254.810 231.008,254.000 231.833 M274.130 248.167 C 274.130 250.550,274.183 251.481,274.247 250.236 C 274.312 248.991,274.311 247.041,274.246 245.903 C 274.182 244.765,274.129 245.783,274.130 248.167 M97.440 250.000 C 97.440 251.192,97.501 251.679,97.574 251.083 C 97.648 250.487,97.648 249.512,97.574 248.917 C 97.501 248.321,97.440 248.808,97.440 250.000 M87.417 250.500 C 87.421 251.233,87.489 251.494,87.569 251.079 C 87.649 250.665,87.646 250.065,87.562 249.746 C 87.479 249.427,87.414 249.767,87.417 250.500 M277.624 250.750 C 277.876 251.071,278.401 251.316,278.791 251.295 C 279.464 251.258,279.467 251.248,278.833 251.092 C 278.467 251.002,277.942 250.757,277.667 250.547 C 277.232 250.216,277.226 250.243,277.624 250.750 M245.084 251.833 C 245.088 252.567,245.156 252.827,245.236 252.413 C 245.315 251.998,245.312 251.398,245.229 251.079 C 245.146 250.761,245.080 251.100,245.084 251.833 M136.744 252.333 C 136.744 252.975,136.813 253.237,136.896 252.917 C 136.980 252.596,136.980 252.071,136.896 251.750 C 136.813 251.429,136.744 251.692,136.744 252.333 M241.421 255.239 C 241.928 255.316,242.678 255.314,243.088 255.235 C 243.498 255.156,243.083 255.093,242.167 255.095 C 241.250 255.098,240.915 255.163,241.421 255.239 M244.984 256.425 C 245.146 257.799,245.153 257.806,245.266 256.708 C 245.330 256.088,245.255 255.455,245.100 255.300 C 244.944 255.144,244.892 255.651,244.984 256.425 M292.000 255.129 C 292.000 255.200,292.442 255.323,292.982 255.402 C 293.523 255.481,293.889 255.423,293.796 255.273 C 293.631 255.006,292.000 254.875,292.000 255.129 M305.750 255.239 C 306.254 255.315,307.079 255.315,307.583 255.239 C 308.087 255.162,307.675 255.100,306.667 255.100 C 305.658 255.100,305.246 255.162,305.750 255.239 M229.411 257.000 C 229.411 257.642,229.479 257.904,229.563 257.583 C 229.647 257.262,229.647 256.737,229.563 256.417 C 229.479 256.096,229.411 256.358,229.411 257.000 M88.084 258.167 C 88.088 258.900,88.156 259.161,88.236 258.746 C 88.315 258.331,88.312 257.731,88.229 257.413 C 88.146 257.094,88.080 257.433,88.084 258.167 M136.751 258.833 C 136.754 259.567,136.823 259.827,136.902 259.413 C 136.982 258.998,136.979 258.398,136.896 258.079 C 136.812 257.761,136.747 258.100,136.751 258.833 M294.091 261.333 C 294.091 262.158,294.156 262.496,294.235 262.083 C 294.315 261.671,294.315 260.996,294.235 260.583 C 294.156 260.171,294.091 260.508,294.091 261.333 M143.895 262.917 C 143.815 263.054,143.871 263.467,144.018 263.833 C 144.252 264.415,144.289 264.384,144.310 263.583 C 144.333 262.679,144.177 262.429,143.895 262.917 M162.587 268.902 C 163.002 268.982,163.602 268.979,163.921 268.896 C 164.239 268.812,163.900 268.747,163.167 268.751 C 162.433 268.754,162.173 268.823,162.587 268.902 M300.417 270.167 C 300.421 270.900,300.489 271.161,300.569 270.746 C 300.649 270.331,300.646 269.731,300.562 269.413 C 300.479 269.094,300.414 269.433,300.417 270.167 M120.088 269.573 C 120.595 269.649,121.345 269.647,121.755 269.568 C 122.165 269.489,121.750 269.426,120.833 269.429 C 119.917 269.431,119.581 269.496,120.088 269.573 M135.254 270.902 C 135.669 270.982,136.269 270.979,136.587 270.896 C 136.906 270.812,136.567 270.747,135.833 270.751 C 135.100 270.754,134.839 270.823,135.254 270.902 " stroke="none" fill="#8b7444" fill-rule="evenodd"></path><path id="path4" d="M100.750 227.239 C 101.254 227.315,102.079 227.315,102.583 227.239 C 103.087 227.162,102.675 227.100,101.667 227.100 C 100.658 227.100,100.246 227.162,100.750 227.239 M271.084 249.833 C 271.088 250.567,271.156 250.827,271.236 250.413 C 271.315 249.998,271.312 249.398,271.229 249.079 C 271.146 248.761,271.080 249.100,271.084 249.833 M136.770 255.500 C 136.772 256.600,136.834 257.010,136.908 256.411 C 136.982 255.812,136.981 254.912,136.905 254.411 C 136.829 253.910,136.768 254.400,136.770 255.500 M87.751 256.167 C 87.754 256.900,87.823 257.161,87.902 256.746 C 87.982 256.331,87.979 255.731,87.896 255.413 C 87.812 255.094,87.747 255.433,87.751 256.167 M129.084 256.500 C 129.088 257.233,129.156 257.494,129.236 257.079 C 129.315 256.665,129.312 256.065,129.229 255.746 C 129.146 255.427,129.080 255.767,129.084 256.500 M255.084 257.500 C 255.088 258.233,255.156 258.494,255.236 258.079 C 255.315 257.665,255.312 257.065,255.229 256.746 C 255.146 256.427,255.080 256.767,255.084 257.500 M113.077 263.333 C 113.077 263.975,113.146 264.237,113.230 263.917 C 113.314 263.596,113.314 263.071,113.230 262.750 C 113.146 262.429,113.077 262.692,113.077 263.333 M293.744 263.333 C 293.744 263.975,293.813 264.237,293.896 263.917 C 293.980 263.596,293.980 263.071,293.896 262.750 C 293.813 262.429,293.744 262.692,293.744 263.333 M230.000 271.438 C 230.000 271.495,230.487 271.983,231.083 272.521 L 232.167 273.500 231.188 272.417 C 230.275 271.407,230.000 271.180,230.000 271.438 " stroke="none" fill="#4b473c" fill-rule="evenodd"></path></g></svg>